<mxfile host="app.diagrams.net" modified="2023-06-14T21:09:05.836Z" agent="Mozilla/5.0 (Windows NT 10.0; Win64; x64) AppleWebKit/537.36 (KHTML, like Gecko) Chrome/114.0.0.0 Safari/537.36" etag="buMYMxZLGsVZusZ3uf9T" version="21.3.8" type="github">
  <diagram name="Page-1" id="OlkdKFWRgOAmbzXKg-dD">
    <mxGraphModel dx="794" dy="462" grid="1" gridSize="10" guides="1" tooltips="1" connect="1" arrows="1" fold="1" page="1" pageScale="1" pageWidth="827" pageHeight="1169" math="0" shadow="0">
      <root>
        <mxCell id="0" />
        <mxCell id="1" parent="0" />
        <mxCell id="21sLSsu9_KA6-juFxCLh-2" value="DonoPet" style="swimlane;whiteSpace=wrap;html=1;" vertex="1" parent="1">
          <mxGeometry x="290" y="80" width="206" height="193" as="geometry" />
        </mxCell>
        <mxCell id="21sLSsu9_KA6-juFxCLh-6" value="&lt;font style=&quot;font-size: 10px;&quot;&gt;+&amp;nbsp;pagouVeterinario(&lt;b style=&quot;&quot;&gt;double &lt;/b&gt;valorPlano)&lt;br&gt;+&amp;nbsp;petComeu(&lt;b style=&quot;border-color: var(--border-color);&quot;&gt;int&amp;nbsp;&lt;/b&gt;buchoCheio)&lt;/font&gt;&lt;div style=&quot;font-size: 10px;&quot;&gt;&lt;font style=&quot;font-size: 10px;&quot;&gt;+&lt;span style=&quot;&quot;&gt;&amp;nbsp;tomouVacina(&lt;/span&gt;&lt;b style=&quot;border-color: var(--border-color);&quot;&gt;int&amp;nbsp;&lt;/b&gt;&lt;span style=&quot;&quot;&gt;doseVacina)&lt;/span&gt;&lt;br&gt;&lt;/font&gt;&lt;/div&gt;&lt;div style=&quot;font-size: 10px;&quot;&gt;&lt;font style=&quot;font-size: 10px;&quot;&gt;+&lt;span style=&quot;&quot;&gt;&amp;nbsp;fezCoco(&lt;/span&gt;&lt;b style=&quot;border-color: var(--border-color);&quot;&gt;int&amp;nbsp;&lt;/b&gt;&lt;span style=&quot;&quot;&gt;cheiroAr)&lt;/span&gt;&lt;br&gt;&lt;/font&gt;&lt;/div&gt;&lt;div style=&quot;font-size: 10px;&quot;&gt;&lt;font style=&quot;font-size: 10px;&quot;&gt;+ passear(&lt;b&gt;int&lt;/b&gt; passeouHoje)&lt;/font&gt;&lt;/div&gt;&lt;div style=&quot;font-size: 10px;&quot;&gt;&lt;br&gt;&lt;/div&gt;" style="text;html=1;align=left;verticalAlign=middle;resizable=0;points=[];autosize=1;strokeColor=none;fillColor=none;" vertex="1" parent="21sLSsu9_KA6-juFxCLh-2">
          <mxGeometry x="6" y="103" width="200" height="90" as="geometry" />
        </mxCell>
        <mxCell id="21sLSsu9_KA6-juFxCLh-7" value="" style="endArrow=none;html=1;rounded=0;" edge="1" parent="21sLSsu9_KA6-juFxCLh-2">
          <mxGeometry width="50" height="50" relative="1" as="geometry">
            <mxPoint y="110" as="sourcePoint" />
            <mxPoint x="200" y="110" as="targetPoint" />
          </mxGeometry>
        </mxCell>
        <mxCell id="21sLSsu9_KA6-juFxCLh-3" value="PetPet" style="swimlane;whiteSpace=wrap;html=1;" vertex="1" parent="1">
          <mxGeometry x="290" y="360" width="200" height="200" as="geometry" />
        </mxCell>
        <mxCell id="21sLSsu9_KA6-juFxCLh-5" value="- &lt;b&gt;double&amp;nbsp;&lt;/b&gt;contasVeterinario&lt;br&gt;&lt;div style=&quot;text-align: left;&quot;&gt;- &lt;b&gt;int &lt;/b&gt;comidaPet&lt;/div&gt;&lt;div style=&quot;text-align: left;&quot;&gt;- &lt;b&gt;int &lt;/b&gt;vacinasPet&lt;/div&gt;&lt;div style=&quot;text-align: left;&quot;&gt;- &lt;b&gt;int&lt;/b&gt; sujeiraPet&lt;/div&gt;" style="text;html=1;align=center;verticalAlign=middle;resizable=0;points=[];autosize=1;strokeColor=none;fillColor=none;" vertex="1" parent="1">
          <mxGeometry x="285" y="111" width="170" height="70" as="geometry" />
        </mxCell>
        <mxCell id="21sLSsu9_KA6-juFxCLh-9" value="&lt;font style=&quot;font-size: 10px;&quot;&gt;+ mostraHumor(&lt;b style=&quot;&quot;&gt;double &lt;/b&gt;tipoRabo)&lt;br&gt;+&amp;nbsp;petComeu(&lt;b style=&quot;border-color: var(--border-color);&quot;&gt;int&amp;nbsp;&lt;/b&gt;buchoCheio)&lt;/font&gt;&lt;div style=&quot;font-size: 10px;&quot;&gt;&lt;font style=&quot;font-size: 10px;&quot;&gt;+&lt;span style=&quot;&quot;&gt;&amp;nbsp;tomouVacina(&lt;/span&gt;&lt;b style=&quot;border-color: var(--border-color);&quot;&gt;int&amp;nbsp;&lt;/b&gt;&lt;span style=&quot;&quot;&gt;doseVacina)&lt;/span&gt;&lt;br&gt;&lt;/font&gt;&lt;/div&gt;&lt;div style=&quot;font-size: 10px;&quot;&gt;&lt;font style=&quot;font-size: 10px;&quot;&gt;+&lt;span style=&quot;&quot;&gt;&amp;nbsp;fezCoco(&lt;/span&gt;&lt;b style=&quot;border-color: var(--border-color);&quot;&gt;int&amp;nbsp;&lt;/b&gt;&lt;span style=&quot;&quot;&gt;cheiroAr)&lt;/span&gt;&lt;br&gt;&lt;/font&gt;&lt;/div&gt;&lt;div style=&quot;font-size: 10px;&quot;&gt;&lt;font style=&quot;font-size: 10px;&quot;&gt;+ falarPet (&lt;b&gt;String &lt;/b&gt;latirMotivo)&lt;/font&gt;&lt;/div&gt;&lt;div style=&quot;font-size: 10px;&quot;&gt;&lt;font style=&quot;font-size: 10px;&quot;&gt;+ pedirCarinho (&lt;b&gt;int &lt;/b&gt;mostrarBarriga)&lt;/font&gt;&lt;/div&gt;&lt;div style=&quot;font-size: 10px;&quot;&gt;&lt;br&gt;&lt;/div&gt;" style="text;html=1;align=left;verticalAlign=middle;resizable=0;points=[];autosize=1;strokeColor=none;fillColor=none;" vertex="1" parent="1">
          <mxGeometry x="306" y="458" width="180" height="100" as="geometry" />
        </mxCell>
        <mxCell id="21sLSsu9_KA6-juFxCLh-10" value="&lt;span style=&quot;text-align: left; background-color: initial;&quot;&gt;- &lt;/span&gt;&lt;b style=&quot;text-align: left; background-color: initial;&quot;&gt;int &lt;/b&gt;&lt;span style=&quot;text-align: left; background-color: initial;&quot;&gt;comidaPet&lt;/span&gt;&lt;br&gt;&lt;div style=&quot;text-align: left;&quot;&gt;- &lt;b&gt;int &lt;/b&gt;vacinasPet&lt;/div&gt;&lt;div style=&quot;text-align: left;&quot;&gt;- &lt;b&gt;int&lt;/b&gt; sujeiraPet&lt;/div&gt;" style="text;html=1;align=center;verticalAlign=middle;resizable=0;points=[];autosize=1;strokeColor=none;fillColor=none;" vertex="1" parent="1">
          <mxGeometry x="295" y="386" width="110" height="60" as="geometry" />
        </mxCell>
        <mxCell id="21sLSsu9_KA6-juFxCLh-11" value="" style="endArrow=none;html=1;rounded=0;" edge="1" parent="1">
          <mxGeometry width="50" height="50" relative="1" as="geometry">
            <mxPoint x="290" y="450" as="sourcePoint" />
            <mxPoint x="490" y="450" as="targetPoint" />
          </mxGeometry>
        </mxCell>
        <mxCell id="21sLSsu9_KA6-juFxCLh-13" value="" style="endArrow=block;html=1;rounded=0;entryX=0.457;entryY=1.007;entryDx=0;entryDy=0;exitX=0.485;exitY=0.003;exitDx=0;exitDy=0;entryPerimeter=0;exitPerimeter=0;endFill=0;" edge="1" parent="1" source="21sLSsu9_KA6-juFxCLh-3" target="21sLSsu9_KA6-juFxCLh-6">
          <mxGeometry width="50" height="50" relative="1" as="geometry">
            <mxPoint x="360" y="370" as="sourcePoint" />
            <mxPoint x="410" y="320" as="targetPoint" />
          </mxGeometry>
        </mxCell>
      </root>
    </mxGraphModel>
  </diagram>
</mxfile>
